<?xml version="1.0" standalone="no"?>
<!DOCTYPE svg PUBLIC "-//W3C//DTD SVG 20010904//EN"
 "http://www.w3.org/TR/2001/REC-SVG-20010904/DTD/svg10.dtd">
<svg version="1.0" xmlns="http://www.w3.org/2000/svg"
 width="512.000000pt" height="512.000000pt" viewBox="0 0 512.000000 512.000000"
 preserveAspectRatio="xMidYMid meet">
<metadata>
Created by potrace 1.14, written by Peter Selinger 2001-2017
</metadata>
<g transform="translate(0.000000,512.000000) scale(0.100000,-0.100000)"
fill="#000000" stroke="none">
<path d="M1079 5002 c-60 -31 -113 -93 -129 -150 -6 -23 -10 -193 -10 -438 l0
-402 -72 -7 c-308 -31 -561 -205 -693 -478 -73 -152 -77 -177 -82 -477 l-5
-265 24 35 c36 53 83 80 140 80 89 0 162 -62 173 -147 3 -26 8 -64 11 -84 12
-87 119 -250 216 -330 168 -138 333 -199 543 -199 278 0 524 128 675 350 59
87 80 139 89 225 15 128 80 192 187 183 61 -5 96 -26 132 -78 21 -31 22 -42
22 -219 0 -174 -2 -189 -24 -236 -35 -75 -104 -128 -184 -141 l-40 -6 -7 -62
c-4 -33 -13 -89 -21 -124 -8 -35 -14 -65 -14 -68 0 -2 680 -4 1510 -4 l1510 0
0 1431 c0 1095 -3 1441 -12 1473 -16 55 -99 138 -154 154 -32 9 -467 12 -1887
12 l-1845 0 -53 -28z m664 -574 c50 -26 62 -86 26 -132 -19 -24 -26 -26 -102
-26 -69 0 -84 3 -104 22 -40 38 -29 109 22 136 27 15 131 15 158 0z m1643 -21
c31 -37 31 -81 -1 -112 l-24 -25 -669 0 c-662 0 -670 0 -696 21 -20 16 -26 29
-26 58 0 46 16 69 55 80 17 6 315 9 683 8 l654 -2 24 -28z m600 0 c31 -37 31
-81 -1 -112 -24 -24 -27 -25 -186 -25 -153 0 -164 1 -186 22 -26 24 -32 83
-10 110 27 34 51 38 205 36 l154 -3 24 -28z m-1110 -340 c29 -34 31 -76 3
-111 l-20 -26 -338 0 c-321 0 -338 1 -358 20 -30 27 -37 56 -22 92 23 55 41
58 392 55 l319 -2 24 -28z m569 18 c58 -23 70 -90 25 -135 -18 -18 -34 -20
-185 -20 -151 0 -167 2 -185 20 -46 46 -28 121 33 139 54 15 273 13 312 -4z
m-576 -352 c12 -10 24 -35 27 -55 5 -30 2 -41 -19 -62 l-26 -26 -204 0 c-186
0 -207 2 -228 19 -18 14 -24 29 -24 61 0 32 6 47 24 61 21 17 42 19 226 19
178 0 205 -2 224 -17z m594 -343 c54 -43 38 -121 -31 -139 -54 -16 -766 -13
-812 2 -62 21 -76 92 -28 137 21 19 34 20 434 20 395 0 412 -1 437 -20z m431
-1 c20 -16 26 -29 26 -60 0 -68 -55 -98 -158 -86 -83 9 -121 89 -67 142 21 22
33 25 98 25 60 0 79 -4 101 -21z m-849 -344 c27 -27 33 -79 12 -106 -27 -35
-54 -39 -247 -39 l-192 0 -29 29 c-37 37 -38 78 -4 115 l24 26 206 0 c205 0
206 0 230 -25z m318 -327 c32 -17 46 -39 47 -74 0 -34 -29 -71 -63 -79 -12 -3
-183 -5 -380 -3 l-359 3 -24 28 c-32 38 -31 72 5 108 l29 29 362 0 c255 0 368
-3 383 -12z m600 1 c52 -24 60 -87 18 -130 l-29 -29 -157 0 c-152 0 -156 1
-180 25 -38 37 -37 88 1 123 24 21 34 22 174 22 88 0 159 -5 173 -11z"/>
<path d="M780 1005 c-198 -40 -377 -146 -500 -297 -108 -132 -190 -352 -190
-511 0 -48 4 -62 25 -82 l24 -25 1056 0 1056 0 24 25 c20 20 25 34 25 77 -1
74 -23 191 -53 272 -14 37 -20 63 -14 57 8 -8 390 -11 1404 -11 1518 0 1451
-3 1473 55 15 41 12 54 -19 86 l-29 29 -1464 0 -1464 0 -51 59 c-123 139 -311
240 -503 271 -97 15 -719 11 -800 -5z"/>
</g>
</svg>
