<?xml version="1.0" standalone="no"?>
<!DOCTYPE svg PUBLIC "-//W3C//DTD SVG 20010904//EN"
 "http://www.w3.org/TR/2001/REC-SVG-20010904/DTD/svg10.dtd">
<svg version="1.0" xmlns="http://www.w3.org/2000/svg"
 width="512.000000pt" height="512.000000pt" viewBox="0 0 512.000000 512.000000"
 preserveAspectRatio="xMidYMid meet">
<metadata>
Created by potrace 1.14, written by Peter Selinger 2001-2017
</metadata>
<g transform="translate(0.000000,512.000000) scale(0.100000,-0.100000)"
fill="#000000" stroke="none">
<path d="M1085 5006 c-60 -28 -97 -66 -124 -126 -20 -43 -21 -64 -21 -456 l0
-411 -75 -7 c-375 -34 -691 -318 -761 -683 -10 -52 -14 -146 -14 -306 l0 -232
19 31 c69 114 236 110 297 -7 8 -16 19 -64 24 -106 12 -91 39 -151 112 -248
105 -138 275 -249 453 -296 112 -30 288 -30 400 0 288 76 536 315 565 546 10
81 25 118 62 152 71 66 192 52 250 -29 22 -32 23 -39 23 -233 0 -200 0 -200
-27 -247 -35 -59 -97 -104 -164 -119 -57 -13 -63 -22 -64 -94 0 -22 -7 -67
-15 -100 -8 -33 -14 -63 -15 -67 0 -5 680 -8 1510 -8 l1510 0 0 1443 c0 1384
-1 1444 -19 1482 -10 22 -36 57 -57 77 -78 74 92 68 -1966 68 l-1853 0 -50
-24z m674 -592 c40 -33 43 -83 6 -119 -21 -22 -33 -25 -98 -25 -94 0 -127 21
-127 79 0 65 35 90 127 91 52 0 66 -4 92 -26z m1626 -9 c33 -33 32 -70 -4
-106 l-29 -29 -667 0 -666 0 -24 25 c-32 31 -33 80 -3 112 l21 23 674 0 674 0
24 -25z m592 10 c41 -29 38 -98 -6 -132 -11 -9 -66 -12 -174 -13 -155 0 -158
1 -182 25 -32 31 -33 80 -3 112 21 22 27 23 183 23 127 0 165 -3 182 -15z
m-1102 -350 c16 -15 25 -36 25 -55 0 -19 -9 -40 -25 -55 l-24 -25 -332 0
c-328 0 -333 0 -356 22 -30 28 -32 89 -3 118 19 19 33 20 355 20 l336 0 24
-25z m585 15 c22 -12 42 -64 33 -88 -3 -9 -15 -27 -26 -39 -20 -22 -27 -23
-182 -23 -155 0 -162 1 -182 23 -34 35 -34 86 -1 117 20 18 35 20 181 20 87 0
167 -4 177 -10z m-589 -359 c31 -32 35 -50 17 -84 -23 -44 -34 -46 -244 -47
l-201 0 -23 25 c-33 35 -31 81 4 112 26 22 32 23 222 23 l196 0 29 -29z m594
-336 c32 -31 33 -80 3 -112 l-21 -23 -417 0 -417 0 -23 25 c-32 34 -30 83 5
113 l26 22 410 0 410 0 24 -25z m430 0 c32 -31 33 -80 3 -112 -19 -20 -31 -23
-98 -23 -86 0 -115 14 -125 59 -7 32 7 68 34 88 9 7 47 13 89 13 64 0 76 -3
97 -25z m-850 -340 c35 -34 33 -78 -5 -116 l-30 -30 -201 3 -201 3 -24 28
c-13 15 -24 37 -24 47 0 30 20 67 44 78 12 6 105 11 219 11 197 1 198 1 222
-24z m341 -348 c30 -36 30 -68 0 -104 l-24 -28 -349 -3 c-389 -4 -416 -1 -438
50 -9 23 -10 40 -3 60 20 57 28 58 426 55 l364 -2 24 -28z m595 4 c36 -36 37
-70 5 -108 -24 -28 -25 -28 -166 -31 -157 -4 -181 -1 -210 28 -35 35 -22 112
23 130 12 5 89 9 170 9 l149 1 29 -29z"/>
<path d="M765 1003 c-333 -71 -597 -339 -661 -671 -8 -41 -14 -101 -14 -133 0
-50 4 -64 25 -84 l24 -25 1056 0 1056 0 24 25 c21 20 25 34 25 85 0 70 -23
192 -50 262 l-18 48 1406 0 c1105 0 1412 3 1432 13 55 28 64 94 18 137 -22 20
-29 20 -1486 20 l-1464 0 -70 75 c-120 128 -272 212 -450 249 -108 22 -748 22
-853 -1z"/>
</g>
</svg>
